<svg xmlns="http://www.w3.org/2000/svg" version="1.1" xmlns:xlink="http://www.w3.org/1999/xlink" xmlns:svgjs="http://svgjs.dev/svgjs" width="1440" height="900" preserveAspectRatio="none" viewBox="0 0 1440 900"><g mask="url(&quot;#SvgjsMask1046&quot;)" fill="none"><rect width="1440" height="900" x="0" y="0" fill="rgba(207, 225, 22, 1)"></rect><path d="M0,667.509C127.356,698.613,268.755,660.544,376.618,586.029C483.099,512.469,558.432,392.964,581.701,265.654C602.965,149.315,512.094,45.844,496.784,-71.427C481.174,-191.001,547.506,-319.068,491.428,-425.825C431.961,-539.034,317.129,-628.177,191.577,-652.453C68.768,-676.199,-49.883,-607.373,-162.14,-552.197C-258.883,-504.646,-336.578,-434.108,-411.104,-356.223C-489.369,-274.431,-587.818,-198.841,-607.012,-87.275C-626.335,25.038,-574.555,138.432,-512.671,234.129C-456.038,321.705,-354.077,359.693,-274.43,427.022C-179.621,507.167,-120.6,638.055,0,667.509" fill="#c5d615"></path><path d="M1440 1415.961C1552.604 1432.0819999999999 1683.723 1489 1774.318 1420.2089999999998 1866.069 1350.54 1810.87 1195.836 1864.307 1093.775 1922.659 982.327 2110.6459999999997 930.624 2096.075 805.671 2081.649 681.96 1900.15 664.043 1804.845 583.86 1728.461 519.596 1682.488 424.255 1592.1779999999999 381.72799999999995 1493.054 335.05100000000004 1381.97 316.735 1273.737 333.76099999999997 1156.307 352.23400000000004 1025.92 384.648 957.1659999999999 481.622 889.116 577.6030000000001 933.591 708.596 924.793 825.924 916.71 933.71 861.724 1045.268 907.56 1143.157 953.3240000000001 1240.893 1065.97 1283.34 1162.017 1332.551 1249.896 1377.577 1342.255 1401.968 1440 1415.961" fill="#d6e91b"></path></g><defs><mask id="SvgjsMask1046"><rect width="1440" height="900" fill="#ffffff"></rect></mask></defs></svg>